<?xml version="1.0" standalone="no"?>
<!DOCTYPE svg PUBLIC "-//W3C//DTD SVG 20010904//EN"
 "http://www.w3.org/TR/2001/REC-SVG-20010904/DTD/svg10.dtd">
<svg version="1.0" xmlns="http://www.w3.org/2000/svg"
 width="1456.000000pt" height="1456.000000pt" viewBox="0 0 1456.000000 1456.000000"
 preserveAspectRatio="xMidYMid meet">
<metadata>
Created by potrace 1.14, written by Peter Selinger 2001-2017
</metadata>
<g transform="translate(0.000000,1456.000000) scale(0.100000,-0.100000)"
fill="#000000" stroke="none">
<path d="M2530 10519 c-14 -4 -52 -16 -85 -25 -194 -55 -367 -211 -466 -417
-58 -122 -79 -214 -74 -334 4 -93 7 -119 20 -183 3 -14 8 -38 11 -55 9 -44 12
-60 14 -60 1 0 3 -8 5 -18 7 -35 79 -207 87 -207 4 0 8 -5 8 -11 0 -6 18 -38
40 -71 22 -33 40 -62 40 -65 0 -5 24 -35 93 -117 23 -28 95 -102 160 -165 165
-163 196 -231 121 -271 -44 -23 -67 -25 -214 -23 -122 2 -2203 6 -2257 4 l-23
-1 0 -508 0 -507 1528 1 c840 1 1537 4 1550 8 12 3 32 8 45 11 43 9 122 40
129 50 4 5 8 7 8 3 0 -4 35 13 78 39 90 55 222 182 277 268 32 50 98 190 104
218 0 4 1 8 2 10 4 14 20 107 24 142 7 56 18 290 17 351 -1 91 -39 196 -106
289 -19 27 -114 142 -229 279 -23 27 -50 59 -59 70 -108 130 -144 172 -190
223 -59 65 -68 96 -39 127 12 12 27 23 34 24 6 1 32 5 57 9 25 4 358 7 740 7
l695 1 0 -1060 c-1 -583 2 -1062 6 -1065 4 -3 227 -5 496 -5 l488 0 3 1066 2
1065 658 -1 c361 0 662 1 669 3 8 3 11 121 12 458 l0 454 -2227 -1 c-1225 -1
-2238 -5 -2252 -10z"/>
<path d="M7593 10518 c-6 -7 -14 -26 -18 -43 -12 -51 -14 -58 -36 -130 -20
-67 -45 -153 -54 -185 -2 -8 -32 -107 -65 -220 -34 -113 -68 -226 -76 -252 -8
-27 -21 -72 -30 -100 -8 -29 -20 -71 -26 -93 -5 -22 -12 -47 -15 -55 -3 -8 -7
-19 -9 -25 -1 -5 -28 -95 -59 -200 -58 -194 -84 -282 -89 -300 -9 -34 -38
-132 -43 -145 -3 -8 -7 -20 -8 -27 -5 -21 -57 -198 -95 -323 -39 -127 -148
-493 -155 -520 -2 -8 -20 -71 -40 -140 -20 -69 -45 -154 -56 -190 -10 -36 -19
-68 -19 -71 0 -4 226 -6 503 -5 396 1 501 4 499 14 -1 6 2 12 6 12 4 0 8 8 9
18 1 9 15 50 32 90 16 39 27 72 24 72 -3 0 -1 6 4 13 5 6 20 41 33 77 13 36
27 70 31 75 4 6 9 19 11 30 3 20 11 20 531 21 364 0 530 -3 535 -10 5 -6 25
-58 46 -116 21 -58 44 -118 51 -135 7 -16 23 -58 35 -92 13 -36 29 -64 39 -67
9 -2 229 -4 488 -4 l473 0 -5 26 c-3 15 -21 83 -41 152 -19 69 -37 132 -39
140 -2 8 -4 15 -5 15 -1 0 -3 7 -5 15 -1 8 -10 42 -19 75 -9 33 -24 85 -32
115 -8 30 -22 80 -31 110 -10 30 -17 57 -18 60 0 3 -4 11 -8 18 -5 6 -6 12 -3
12 3 0 1 11 -4 25 -5 14 -12 36 -14 48 -5 24 -46 168 -73 257 -9 30 -18 64
-20 75 -2 11 -6 27 -10 35 -3 8 -8 24 -10 35 -6 29 -9 38 -16 55 -4 8 -8 24
-10 35 -2 11 -7 27 -10 35 -3 8 -42 146 -86 305 -45 160 -85 304 -90 320 -5
17 -19 66 -31 110 -12 44 -31 109 -41 145 -11 36 -24 81 -29 100 -5 19 -19 66
-30 104 -11 37 -22 78 -24 90 -3 11 -12 44 -21 71 -9 28 -18 61 -21 75 -5 23
-41 150 -63 225 -8 25 -30 103 -37 128 -1 4 -2 12 -3 17 -2 16 -1596 14 -1608
-2z m844 -791 c1 -7 12 -43 23 -82 12 -38 23 -74 24 -80 1 -5 9 -30 16 -55 7
-25 14 -49 16 -55 1 -5 12 -44 24 -85 12 -41 30 -104 40 -140 11 -36 26 -90
35 -120 22 -78 22 -78 44 -155 11 -38 35 -123 54 -187 19 -65 33 -119 31 -120
-1 -2 -148 -3 -325 -2 -238 1 -324 4 -327 13 -2 6 15 71 38 144 66 211 69 219
89 282 25 78 64 207 67 220 2 11 73 240 82 265 3 8 4 18 4 23 -1 4 2 7 6 7 5
0 9 7 9 15 0 8 8 42 18 75 17 56 25 66 32 37z"/>
<path d="M10432 9011 l0 -1519 549 1 549 0 0 509 0 509 33 -38 c17 -21 37 -43
42 -50 6 -7 26 -30 45 -51 19 -21 60 -67 90 -102 30 -35 69 -77 85 -95 17 -17
66 -71 110 -120 149 -165 397 -405 469 -454 12 -8 23 -18 26 -22 10 -14 121
-61 158 -67 20 -3 472 -7 1005 -9 l967 -4 -2 508 -3 508 -110 -4 c-192 -7
-1338 -6 -1390 1 -98 14 -182 52 -211 95 -20 31 -13 39 40 45 78 9 167 59 248
139 83 83 118 124 118 139 0 6 5 10 10 10 6 0 10 4 10 9 0 5 15 35 33 68 90
162 149 389 150 588 0 52 -4 95 -18 182 -5 34 -45 144 -73 198 -78 156 -208
301 -357 400 -75 50 -163 96 -193 101 -8 1 -21 6 -30 10 -17 7 -25 10 -72 22
-14 3 -532 7 -1152 9 l-1126 3 0 -1519z m1843 735 c21 -4 52 -14 67 -22 65
-34 125 -128 134 -212 2 -25 6 -48 8 -50 7 -6 -25 -115 -42 -141 -34 -53 -93
-94 -153 -107 -36 -7 -745 -8 -757 0 -6 3 -9 46 -9 107 1 55 -2 103 -6 106 -4
3 -4 10 0 16 5 7 8 78 7 159 -1 143 -1 147 20 150 45 6 693 1 731 -6z"/>
<path d="M96 7103 c-4 -4 -25 -6 -48 -4 -34 2 -40 0 -35 -14 4 -8 14 -41 23
-73 8 -31 18 -64 21 -72 3 -8 8 -26 10 -40 2 -13 9 -30 15 -37 6 -7 8 -13 4
-13 -3 0 -1 -12 5 -27 6 -16 12 -35 14 -43 2 -8 13 -49 26 -90 12 -41 21 -75
19 -75 -2 0 2 -9 8 -21 6 -11 13 -32 16 -45 5 -23 14 -55 106 -364 23 -77 46
-153 50 -170 5 -16 16 -54 25 -84 9 -30 18 -62 20 -70 2 -9 10 -37 19 -62 9
-25 17 -54 19 -65 2 -10 7 -26 10 -34 16 -40 55 -180 50 -180 -3 0 -1 -6 4
-12 6 -7 16 -35 22 -63 7 -27 17 -59 21 -70 5 -11 20 -63 35 -115 15 -52 45
-156 67 -230 22 -74 43 -148 48 -165 4 -16 12 -41 18 -55 5 -14 10 -29 11 -35
1 -5 7 -28 13 -50 6 -22 12 -42 13 -45 0 -3 6 -21 12 -40 6 -19 21 -69 33
-110 12 -41 31 -104 42 -140 11 -36 21 -72 23 -80 2 -8 19 -67 37 -130 l34
-115 456 -1 456 -1 15 41 c8 23 23 68 33 101 9 33 28 93 41 134 12 40 23 77
23 82 0 4 5 20 11 36 7 15 13 35 14 43 1 8 16 60 33 115 52 171 72 237 99 325
14 47 37 126 53 175 15 50 37 124 49 165 13 41 30 98 39 125 9 28 17 56 18 63
6 34 19 7 39 -83 2 -5 8 -30 15 -55 7 -25 14 -52 16 -60 2 -8 29 -105 60 -215
48 -171 61 -220 78 -290 12 -45 21 -78 37 -130 10 -33 21 -71 23 -85 3 -14 34
-128 69 -255 l64 -230 447 -1 c403 -1 447 0 455 15 4 9 20 61 35 116 15 55 34
118 41 140 15 43 34 115 35 128 0 4 6 23 14 42 9 20 15 36 14 38 0 1 6 27 15
57 9 30 17 58 17 62 1 4 5 20 10 35 5 16 27 91 50 168 23 77 46 154 51 170 6
17 12 37 14 45 1 8 11 42 21 75 10 33 19 65 20 70 9 34 17 62 49 170 60 202
107 359 110 375 2 8 4 16 5 18 2 1 3 5 4 10 11 39 32 114 57 197 16 55 41 138
55 185 14 47 36 121 49 166 14 44 26 89 28 100 2 10 7 26 10 34 4 8 15 47 26
85 11 39 36 124 56 190 19 66 37 127 39 136 3 9 14 49 27 90 12 41 24 84 26
97 l4 23 -163 0 c-90 0 -172 0 -183 0 -50 0 -472 0 -485 0 -8 -1 -45 -1 -83 0
-37 0 -67 -4 -66 -8 3 -10 -11 -64 -20 -78 -3 -5 -6 -15 -7 -21 -1 -6 -32
-109 -69 -230 -36 -120 -68 -228 -70 -238 -3 -11 -15 -54 -28 -95 -14 -42 -34
-107 -45 -146 -42 -141 -54 -175 -61 -175 -4 0 -13 21 -20 48 -6 26 -16 61
-21 77 -5 17 -13 46 -19 65 -5 19 -18 64 -29 100 -24 79 -83 281 -86 295 -1 6
-13 43 -25 84 -13 41 -24 81 -27 90 -2 9 -18 64 -36 124 l-32 108 -96 0 c-52
0 -104 0 -115 -1 -18 0 -124 1 -165 1 -21 0 -462 0 -480 0 -8 0 -84 -1 -169
-3 l-155 -3 -8 -30 c-4 -16 -10 -39 -13 -50 -4 -18 -101 -387 -161 -615 -14
-52 -28 -106 -30 -119 -3 -14 -7 -28 -9 -31 -2 -4 -7 -20 -10 -36 -3 -16 -11
-49 -18 -73 -13 -41 -14 -43 -21 -20 -20 60 -47 157 -52 184 -3 17 -11 36 -16
43 -6 6 -7 12 -4 12 4 0 2 8 -3 18 -5 9 -11 31 -14 48 -3 17 -9 40 -15 50 -5
11 -10 23 -10 27 1 4 -37 140 -83 301 l-84 294 -32 1 c-18 1 -41 2 -50 2 -20
0 -459 0 -483 0 -160 -2 -445 1 -450 4 -4 2 -10 1 -14 -2z"/>
<path d="M12547 7094 c-1 -1 -45 -4 -97 -7 -99 -6 -120 -9 -179 -28 -59 -19
-161 -70 -161 -80 0 -5 -6 -9 -14 -9 -24 0 -161 -141 -209 -216 -85 -131 -139
-293 -140 -419 -1 -70 17 -240 29 -277 2 -9 7 -27 10 -40 3 -13 6 -27 8 -33 2
-5 7 -23 11 -40 7 -27 36 -97 68 -165 21 -45 90 -153 136 -215 66 -87 111
-136 265 -284 36 -34 66 -65 66 -67 0 -3 9 -17 20 -32 29 -38 33 -85 10 -110
-32 -34 -108 -45 -266 -38 -80 3 -149 8 -155 11 -5 4 -9 2 -9 -3 0 -5 -12 -8
-27 -6 -16 2 -59 4 -98 4 -38 -1 -108 0 -155 0 -47 1 -89 1 -95 2 -5 0 -41 -1
-80 -1 -38 0 -77 0 -85 0 -8 0 -80 0 -160 0 -80 0 -152 0 -160 0 -8 0 -80 0
-160 -1 -145 -1 -162 1 -255 21 -73 16 -251 114 -218 121 4 0 13 2 18 3 117
21 189 60 282 151 40 39 73 75 73 81 0 6 4 13 8 15 21 8 107 164 144 262 67
174 97 404 76 571 -6 45 -37 165 -46 180 -4 5 -7 12 -7 15 -3 19 -31 80 -37
80 -4 0 -8 5 -8 10 0 26 -102 163 -180 241 -139 140 -280 221 -457 264 -72 17
-2272 19 -2274 1 -1 -6 -2 -689 -3 -1518 l-1 -1508 547 0 c431 0 548 3 549 13
0 6 1 235 1 507 l0 494 55 -59 c29 -33 62 -69 72 -80 165 -186 246 -275 391
-428 115 -121 160 -166 240 -237 115 -103 124 -110 138 -110 6 0 12 -4 12 -8
0 -14 94 -57 150 -69 58 -12 257 -17 485 -13 11 1 29 -1 40 -3 11 -2 31 -1 45
3 14 4 35 4 47 -1 12 -4 24 -5 27 -1 5 9 99 7 114 -2 7 -4 12 -4 12 1 0 4 318
9 708 11 839 3 1249 8 1280 15 153 37 281 92 381 163 54 40 191 166 191 178 0
3 8 15 18 25 9 11 23 26 29 35 18 21 89 167 98 202 5 16 9 34 11 39 37 131 34
355 -7 477 -30 90 -110 215 -197 310 -19 21 -42 48 -50 60 -9 12 -23 29 -31
38 -9 8 -34 38 -56 65 -22 28 -47 57 -55 65 -8 8 -33 37 -55 65 -22 27 -47 57
-55 65 -8 9 -27 31 -42 50 -14 19 -43 53 -65 75 -62 65 -83 96 -83 125 0 38
28 59 99 73 61 13 95 13 1186 7 138 0 255 -1 260 -1 7 1 11 152 10 456 l0 455
-35 1 c-89 1 -1952 4 -1953 3z m-2622 -799 c63 -29 119 -95 142 -167 45 -140
1 -271 -112 -331 -39 -21 -53 -22 -431 -25 l-392 -3 0 268 c0 147 4 270 8 273
5 3 174 5 377 4 337 0 371 -2 408 -19z"/>
<path d="M5119 7040 c-7 -25 -13 -47 -14 -50 -1 -5 -3 -13 -40 -135 -14 -44
-50 -165 -81 -270 -30 -104 -62 -210 -69 -235 -7 -25 -23 -76 -34 -115 -27
-95 -48 -165 -66 -225 -35 -116 -47 -157 -55 -185 -14 -49 -56 -193 -90 -305
-38 -126 -60 -200 -65 -220 -2 -8 -8 -28 -15 -45 -6 -16 -10 -30 -9 -30 2 0
-3 -19 -36 -130 -14 -44 -45 -150 -71 -235 -25 -85 -50 -167 -54 -182 -5 -16
-6 -28 -3 -28 3 0 -1 -7 -8 -17 -8 -9 -13 -19 -11 -22 1 -3 -7 -37 -19 -76
-13 -38 -23 -75 -25 -81 -1 -6 -21 -74 -44 -150 -45 -147 -58 -194 -66 -234
l-4 -25 496 0 496 1 18 39 c15 35 52 131 56 145 0 3 6 19 13 35 6 17 21 55 32
85 37 96 49 119 66 122 9 2 245 2 524 0 l507 -2 10 -28 c6 -15 25 -65 42 -112
18 -47 36 -94 40 -105 5 -11 22 -56 38 -100 l30 -79 479 -1 c263 0 484 1 490
3 7 2 10 9 6 16 -4 6 -8 16 -10 21 -4 21 -13 53 -38 140 -14 50 -28 99 -30
109 -3 10 -20 73 -39 140 -29 102 -71 253 -80 291 -2 6 -5 17 -8 25 -6 15 -36
121 -43 150 -2 8 -13 49 -25 90 -11 41 -23 82 -25 90 -2 8 -11 40 -20 70 -9
30 -18 65 -21 77 -2 12 -9 34 -14 48 -5 14 -8 25 -5 25 2 0 -3 16 -11 35 -8
19 -14 36 -13 37 0 2 -2 10 -5 18 -6 20 -87 321 -91 340 -2 8 -8 27 -14 43 -6
15 -8 27 -5 27 4 0 1 7 -6 15 -7 8 -10 15 -7 15 3 0 -4 28 -15 63 -11 34 -21
69 -23 77 -1 8 -9 35 -16 60 -7 25 -13 48 -15 53 -1 4 -2 8 -3 10 -2 1 -4 12
-7 24 -3 18 -28 109 -79 288 -32 110 -48 170 -46 170 1 0 -3 14 -9 30 -7 17
-14 40 -16 53 -3 13 -11 42 -19 65 -8 23 -16 53 -19 67 -3 14 -16 63 -29 110
-14 47 -28 97 -31 113 -4 15 -12 27 -19 28 -6 1 -368 2 -804 3 l-792 1 -12
-45z m875 -824 c4 -21 10 -40 23 -73 7 -21 10 -31 16 -58 2 -11 7 -27 10 -35
3 -8 13 -42 22 -75 19 -72 20 -75 40 -145 9 -30 25 -84 35 -120 10 -36 28 -99
40 -140 12 -41 23 -82 25 -90 8 -30 64 -226 73 -252 9 -24 7 -26 -18 -30 -15
-2 -36 -1 -46 3 -11 3 -28 3 -39 -1 -11 -4 -31 -4 -45 0 -14 3 -36 4 -50 0
-14 -4 -37 -3 -52 1 -15 4 -30 4 -33 -1 -3 -5 -18 -5 -33 -1 -15 5 -36 5 -47
1 -11 -4 -32 -4 -47 1 -15 4 -30 4 -33 -1 -3 -5 -12 -7 -19 -4 -20 8 -106 10
-106 3 0 -4 -15 -4 -32 -2 -18 3 -38 5 -44 6 -7 0 -3 27 13 76 23 73 28 89 53
176 6 22 13 46 15 53 3 7 5 14 5 17 0 3 8 24 16 47 9 24 17 50 19 58 2 8 18
60 35 115 18 55 40 127 50 160 31 107 91 300 97 315 8 18 7 17 17 60 l9 35 14
-39 c7 -22 15 -49 17 -60z"/>
</g>
</svg>
